# xmcd CD database file
#
# Track frame offsets:
#	150
#	31387
#	50005
#	69852
#	87697
#	101610
#	126400
#	145912
#	166422
#	183950
#	210402
#	232400
#
# Disc length: 3349 seconds
#
# Revision: 0
# Processed by: cddbd v1.4PL0 Copyright (c) Steve Scherf et al.
# Submitted via: CDex 1.50beta10
#
DISCID=b00d130c
DTITLE=Claude Bolling Big Band - Cinemadreams
DYEAR=1900
DGENRE=Jazz
TTITLE0=Borsalino
TTITLE1=Raindrops Keep Fallin' On My Head
TTITLE2=Finian's Rainbows
TTITLE3=A Pairs Of Twins
TTITLE4=The Pink Panther
TTITLE5=Lawrence Of Arabia/Lala's Theme(Medley)
TTITLE6=The Entertainer
TTITLE7=Laura
TTITLE8=As Time Goes By
TTITLE9=La Strada
TTITLE10=High Noon
TTITLE11=Everybody Wants To Be A Cat
EXTD=
EXTT0=
EXTT1=
EXTT2=
EXTT3=
EXTT4=
EXTT5=
EXTT6=
EXTT7=
EXTT8=
EXTT9=
EXTT10=
EXTT11=
PLAYORDER=
